<?xml version="1.0" encoding="UTF-8" standalone="no"?>
<!DOCTYPE svg PUBLIC "-//W3C//DTD SVG 1.1//EN" "http://www.w3.org/Graphics/SVG/1.1/DTD/svg11.dtd">
<svg xmlns="http://www.w3.org/2000/svg" version="1.1" viewBox="0.00 0.00 1024.00 1024.00">
<path fill="#f1c956" d="
  M 758.27 276.05
  A 0.42 0.42 0.0 0 1 758.84 276.53
  L 737.63 377.42
  A 0.47 0.47 0.0 0 1 736.86 377.67
  L 709.67 353.42
  A 0.24 0.24 0.0 0 0 709.28 353.55
  Q 709.21 353.85 703.42 360.92
  C 672.44 398.82 619.50 463.79 578.88 514.66
  Q 507.16 604.49 499.97 613.22
  Q 498.58 614.90 497.80 616.46
  A 0.76 0.76 0.0 0 1 496.58 616.65
  Q 485.46 605.18 464.98 583.03
  Q 455.44 572.72 450.37 567.38
  C 440.91 557.42 431.63 547.71 423.46 538.79
  Q 422.23 537.44 421.36 536.08
  A 0.45 0.45 0.0 0 0 420.64 536.04
  L 266.10 724.79
  A 1.65 1.64 -50.5 0 1 263.78 725.02
  L 245.34 709.93
  A 0.50 0.50 0.0 0 1 245.28 709.23
  Q 265.55 684.63 334.82 599.82
  Q 370.81 555.76 411.84 504.84
  Q 413.95 502.22 419.12 496.68
  A 0.54 0.54 0.0 0 1 419.90 496.68
  L 495.43 577.20
  A 0.32 0.31 41.2 0 0 495.91 577.17
  Q 502.84 567.52 512.17 555.93
  Q 542.10 518.80 543.92 516.43
  C 551.65 506.38 559.49 497.16 566.66 488.17
  Q 628.70 410.49 689.03 336.64
  A 0.65 0.65 0.0 0 0 688.94 335.73
  L 662.94 314.44
  A 0.65 0.65 0.0 0 1 663.12 313.33
  L 758.27 276.05
  Z"
/>
<path fill="#f1c956" d="
  M 341.98 545.06
  Q 332.37 537.75 322.21 525.99
  Q 283.02 480.65 291.11 420.29
  Q 292.59 409.23 296.79 397.55
  Q 306.79 369.76 326.86 349.22
  C 348.44 327.14 377.69 314.33 408.25 312.94
  Q 413.45 312.70 428.50 312.68
  Q 483.40 312.60 604.25 312.66
  Q 606.46 312.66 608.78 312.49
  A 0.47 0.46 88.3 0 1 609.27 312.96
  L 609.27 338.40
  A 0.75 0.75 0.0 0 1 608.52 339.15
  Q 485.99 339.29 424.70 338.96
  Q 405.71 338.85 397.40 340.38
  Q 366.40 346.07 345.24 368.16
  Q 319.56 394.97 316.34 431.51
  Q 314.90 447.74 318.53 462.82
  C 324.49 487.63 338.77 507.79 358.52 523.97
  A 1.01 1.01 0.0 0 1 358.66 525.39
  L 342.61 544.99
  A 0.46 0.45 38.6 0 1 341.98 545.06
  Z"
/>
<path fill="#f1c956" d="
  M 633.49 493.34
  Q 643.37 502.47 647.75 507.29
  Q 663.71 524.84 672.71 547.13
  Q 680.51 566.49 681.07 587.55
  C 682.03 623.95 668.34 659.09 642.41 684.35
  Q 614.33 711.70 573.95 717.60
  Q 564.13 719.04 545.51 718.96
  Q 443.98 718.54 355.38 718.54
  A 0.39 0.38 -0.0 0 1 354.99 718.16
  L 354.99 692.64
  A 0.57 0.56 -0.5 0 1 355.55 692.08
  Q 378.15 692.05 545.84 692.57
  Q 565.18 692.63 574.04 691.06
  Q 599.24 686.62 619.19 670.01
  Q 637.98 654.36 647.37 631.60
  Q 656.77 608.83 654.46 584.48
  Q 652.12 559.87 638.00 538.42
  C 632.26 529.70 624.36 521.48 616.14 514.15
  A 0.50 0.49 41.1 0 1 616.09 513.47
  L 632.52 493.41
  A 0.66 0.66 0.0 0 1 633.49 493.34
  Z"
/>
</svg>
