<?xml version="1.0" encoding="UTF-8" standalone="no"?>
<!DOCTYPE svg PUBLIC "-//W3C//DTD SVG 1.1//EN" "http://www.w3.org/Graphics/SVG/1.1/DTD/svg11.dtd">
<svg xmlns="http://www.w3.org/2000/svg" version="1.1" viewBox="0.00 0.00 1024.00 1536.00">
<g stroke-width="2.00" fill="none" stroke-linecap="butt">
<path stroke="#66512c" vector-effect="non-scaling-stroke" d="
  M 293.45 839.38
  A 0.32 0.32 0.0 0 0 293.48 839.82
  L 308.29 853.44
  A 0.32 0.32 0.0 0 0 308.75 853.41
  L 441.67 698.58
  A 0.32 0.32 0.0 0 1 442.14 698.57
  L 500.60 760.23
  A 0.32 0.32 0.0 0 0 501.07 760.22
  L 683.13 548.17
  A 0.32 0.32 0.0 0 1 683.57 548.13
  L 710.42 570.03
  A 0.32 0.32 0.0 0 0 710.94 569.83
  L 724.45 484.15
  A 0.32 0.32 0.0 0 0 724.02 483.81
  L 642.78 514.66
  A 0.32 0.32 0.0 0 0 642.69 515.21
  L 666.51 534.63
  A 0.32 0.32 0.0 0 1 666.55 535.09
  L 499.94 729.15
  A 0.32 0.32 0.0 0 1 499.47 729.16
  L 441.25 667.76
  A 0.32 0.32 0.0 0 0 440.78 667.77
  L 293.45 839.38"
/>
<path stroke="#66512c" vector-effect="non-scaling-stroke" d="
  M 597.83 541.16
  L 597.83 520.08
  A 0.41 0.41 0.0 0 0 597.42 519.67
  Q 473.24 519.72 464.28 519.66
  Q 433.96 519.46 426.76 520.40
  Q 394.95 524.54 370.69 544.86
  C 346.88 564.80 332.66 594.38 333.29 624.98
  C 333.98 658.78 350.17 689.16 377.25 709.64
  A 0.54 0.54 0.0 0 0 377.99 709.55
  L 391.09 693.49
  A 0.63 0.63 0.0 0 0 390.99 692.60
  C 381.13 684.70 370.02 674.90 364.05 662.76
  C 354.63 643.59 351.72 622.53 357.87 602.10
  C 363.75 582.55 375.62 567.44 392.05 555.96
  Q 412.57 541.60 439.51 541.57
  Q 521.87 541.45 597.42 541.57
  A 0.41 0.41 0.0 0 0 597.83 541.16"
/>
<path stroke="#66512c" vector-effect="non-scaling-stroke" d="
  M 602.76 673.83
  Q 610.62 680.23 611.52 680.98
  C 635.02 700.44 646.65 730.54 640.37 760.59
  C 636.04 781.35 622.86 800.04 605.60 812.62
  C 593.47 821.46 578.36 825.56 563.69 826.67
  Q 561.27 826.85 543.79 826.85
  Q 381.70 826.81 375.02 826.79
  A 0.59 0.59 0.0 0 0 374.42 827.38
  L 374.42 848.00
  A 0.75 0.74 -0.0 0 0 375.17 848.74
  Q 386.26 848.69 557.23 848.68
  Q 591.38 848.68 618.00 829.77
  Q 628.77 822.12 638.36 811.56
  C 644.37 804.94 649.40 796.29 653.71 787.92
  Q 656.33 782.81 658.56 775.54
  Q 669.03 741.40 656.46 708.30
  C 648.52 687.41 633.84 670.01 615.80 657.07
  A 0.29 0.28 37.5 0 0 615.41 657.12
  L 602.65 672.76
  A 0.76 0.76 0.0 0 0 602.76 673.83"
/>
<path stroke="#66512c" vector-effect="non-scaling-stroke" d="
  M 816.43 1016.60
  L 809.40 1009.18
  A 0.59 0.59 0.0 0 1 809.41 1008.35
  Q 819.32 998.60 822.04 983.76
  C 827.78 952.48 811.81 919.54 777.93 914.72
  C 757.11 911.75 735.65 917.92 722.63 934.99
  C 710.13 951.37 708.24 974.50 716.33 992.94
  Q 728.42 1020.48 759.78 1024.29
  Q 766.77 1025.14 776.89 1024.05
  Q 786.29 1023.05 793.21 1019.53
  A 0.46 0.45 -35.1 0 1 793.74 1019.62
  L 802.32 1028.67
  A 0.40 0.39 -42.4 0 0 802.87 1028.69
  L 816.42 1016.86
  A 0.18 0.18 0.0 0 0 816.43 1016.60"
/>
<path stroke="#66512c" vector-effect="non-scaling-stroke" d="
  M 265.00 945.43
  L 276.36 929.61
  A 0.61 0.60 -52.5 0 0 276.26 928.81
  C 263.71 917.91 247.43 913.17 230.74 914.32
  C 217.07 915.27 204.14 921.59 197.83 934.02
  C 195.59 938.43 195.09 944.15 195.22 949.24
  C 195.55 961.22 204.52 969.56 215.15 973.59
  C 223.73 976.85 232.31 978.54 242.13 980.86
  C 246.55 981.90 254.44 984.04 256.83 988.55
  C 258.26 991.24 257.38 997.27 255.11 999.16
  Q 249.23 1004.06 240.99 1004.33
  Q 219.66 1005.04 204.55 990.44
  A 0.51 0.51 0.0 0 0 203.77 990.53
  L 192.50 1007.83
  A 0.74 0.73 40.0 0 0 192.58 1008.73
  C 202.04 1018.81 217.04 1024.03 230.46 1024.50
  Q 234.41 1024.64 242.04 1024.60
  C 256.81 1024.53 273.13 1018.32 278.23 1003.25
  C 281.88 992.43 280.05 978.78 271.44 970.77
  Q 263.52 963.40 252.63 960.61
  Q 241.94 957.87 231.71 955.29
  C 227.85 954.32 219.12 951.14 218.46 946.82
  C 217.06 937.67 226.97 934.60 234.29 934.47
  Q 251.10 934.18 264.01 945.54
  A 0.68 0.67 38.4 0 0 265.00 945.43"
/>
<path stroke="#66512c" vector-effect="non-scaling-stroke" d="
  M 696.3672 916.5603
  A 0.45 0.45 0.0 0 0 695.9164 916.1111
  L 674.1364 916.1491
  A 0.45 0.45 0.0 0 0 673.6872 916.5999
  L 673.8728 1022.9197
  A 0.45 0.45 0.0 0 0 674.3236 1023.3689
  L 696.1036 1023.3309
  A 0.45 0.45 0.0 0 0 696.5528 1022.8801
  L 696.3672 916.5603"
/>
<path stroke="#66512c" vector-effect="non-scaling-stroke" d="
  M 565.16 944.54
  L 565.16 924.76
  A 0.53 0.53 0.0 0 0 564.63 924.23
  L 545.30 924.23
  A 0.57 0.56 90.0 0 0 544.74 924.80
  L 544.74 944.70
  A 0.52 0.52 0.0 0 1 544.22 945.22
  L 531.77 945.22
  A 0.46 0.46 0.0 0 0 531.31 945.68
  L 531.31 962.45
  A 0.57 0.56 -0.0 0 0 531.88 963.01
  L 544.16 963.01
  A 0.60 0.60 0.0 0 1 544.76 963.61
  Q 544.79 986.93 544.85 1002.50
  Q 544.87 1008.23 545.67 1010.77
  Q 549.99 1024.48 565.32 1024.74
  Q 576.06 1024.92 584.59 1020.33
  A 0.75 0.75 0.0 0 0 584.95 1019.43
  L 580.46 1005.48
  A 0.67 0.66 70.5 0 0 579.60 1005.06
  Q 576.94 1006.06 573.65 1006.41
  C 565.82 1007.24 565.18 1001.10 565.16 995.25
  Q 565.15 987.66 565.16 963.66
  A 0.64 0.63 -90.0 0 1 565.79 963.02
  L 581.26 963.02
  A 0.35 0.35 0.0 0 0 581.61 962.67
  L 581.61 945.77
  A 0.52 0.52 0.0 0 0 581.09 945.25
  L 565.87 945.25
  A 0.71 0.71 0.0 0 1 565.16 944.54"
/>
<path stroke="#66512c" vector-effect="non-scaling-stroke" d="
  M 290.87 945.67
  L 290.87 1052.06
  A 0.38 0.38 0.0 0 0 291.25 1052.44
  L 311.24 1052.44
  A 0.33 0.33 0.0 0 0 311.57 1052.11
  L 311.57 1015.61
  A 0.34 0.34 0.0 0 1 312.14 1015.35
  Q 322.53 1024.82 336.48 1024.85
  Q 355.52 1024.89 364.94 1009.51
  Q 370.94 999.71 371.48 989.56
  C 372.02 979.36 371.38 969.53 366.22 961.01
  Q 355.45 943.20 335.09 943.51
  Q 321.41 943.71 312.30 953.07
  A 0.43 0.42 -23.0 0 1 311.57 952.78
  L 311.57 945.88
  A 0.66 0.65 90.0 0 0 310.92 945.22
  L 291.32 945.22
  A 0.45 0.45 0.0 0 0 290.87 945.67"
/>
<path stroke="#66512c" vector-effect="non-scaling-stroke" d="
  M 449.34 951.43
  C 437.29 942.14 417.59 940.99 404.13 947.66
  C 387.37 955.97 381.34 971.63 382.68 989.52
  Q 383.90 1005.89 396.52 1016.03
  C 405.24 1023.03 414.86 1025.07 426.02 1024.69
  C 441.46 1024.16 453.71 1017.13 460.67 1002.93
  C 469.76 984.39 465.49 963.88 449.34 951.43"
/>
<path stroke="#66512c" vector-effect="non-scaling-stroke" d="
  M 500.93 954.10
  L 500.93 945.75
  A 0.51 0.51 0.0 0 0 500.42 945.24
  L 480.29 945.24
  A 0.45 0.45 0.0 0 0 479.84 945.69
  L 479.84 1023.08
  A 0.29 0.28 -0.0 0 0 480.13 1023.36
  L 500.47 1023.36
  A 0.41 0.40 90.0 0 0 500.87 1022.95
  Q 500.88 1003.04 500.85 974.28
  C 500.85 971.93 501.46 970.28 503.04 968.70
  C 509.17 962.59 517.72 962.32 525.88 963.42
  A 0.39 0.38 3.9 0 0 526.32 963.04
  L 526.32 943.98
  A 0.17 0.17 0.0 0 0 526.15 943.81
  Q 511.12 943.89 501.57 954.35
  A 0.37 0.37 0.0 0 1 500.93 954.10"
/>
<path stroke="#66512c" vector-effect="non-scaling-stroke" d="
  M 598.15 998.94
  L 590.12 1012.84
  A 0.79 0.78 -56.7 0 0 590.32 1013.85
  Q 604.69 1024.62 622.99 1024.78
  C 633.17 1024.87 641.52 1024.27 649.55 1018.27
  Q 655.49 1013.84 657.53 1006.71
  Q 662.29 990.06 647.80 981.39
  Q 643.14 978.59 638.93 977.56
  Q 624.98 974.14 620.56 973.19
  C 616.21 972.25 610.90 970.18 612.39 964.35
  C 613.19 961.21 618.02 959.76 620.82 959.52
  Q 635.80 958.20 647.91 967.35
  A 0.57 0.56 33.7 0 0 648.75 967.19
  L 656.00 954.63
  A 0.94 0.93 31.8 0 0 655.70 953.38
  Q 636.44 940.39 613.63 945.33
  C 602.54 947.73 592.62 954.47 592.15 966.73
  C 591.77 976.75 596.20 983.23 604.78 987.17
  Q 608.75 988.99 610.61 989.42
  Q 628.20 993.44 629.06 993.66
  C 632.40 994.50 638.29 996.18 638.75 999.97
  C 639.45 1005.90 634.15 1008.71 629.28 1009.05
  Q 611.43 1010.28 598.60 998.87
  A 0.30 0.29 35.9 0 0 598.15 998.94"
/>
<path stroke="#66512c" vector-effect="non-scaling-stroke" d="
  M 795.18 990.12
  C 803.84 975.09 802.06 953.18 788.11 941.83
  Q 782.52 937.28 775.92 935.81
  C 756.17 931.42 737.54 942.54 735.06 963.08
  C 732.42 985.01 743.67 1003.01 766.74 1004.35
  Q 771.87 1004.65 776.88 1003.02
  A 0.74 0.74 0.0 0 0 777.21 1001.83
  L 765.73 988.70
  A 0.34 0.33 50.8 0 1 765.77 988.22
  L 781.46 975.60
  A 0.37 0.37 0.0 0 1 781.97 975.65
  L 794.66 990.17
  A 0.32 0.32 0.0 0 0 795.18 990.12"
/>
<path stroke="#66512c" vector-effect="non-scaling-stroke" d="
  M 311.55 984.31
  C 311.65 990.34 311.24 994.68 312.18 996.97
  C 314.83 1003.46 324.74 1006.81 331.16 1006.54
  C 343.70 1006.00 350.33 996.32 350.12 983.66
  C 349.91 971.01 342.96 961.55 330.40 961.44
  C 323.98 961.38 314.19 965.06 311.75 971.63
  C 310.90 973.95 311.45 978.27 311.55 984.31"
/>
<path stroke="#66512c" vector-effect="non-scaling-stroke" d="
  M 403.27 982.48
  C 402.53 995.07 408.88 1005.43 422.38 1006.22
  C 435.88 1007.00 443.38 997.45 444.12 984.86
  C 444.86 972.27 438.51 961.91 425.01 961.12
  C 411.51 960.33 404.01 969.89 403.27 982.48"
/>
</g>
<path fill="#1b1c24" d="
  M 1024.00 0.00
  L 1024.00 1536.00
  L 0.00 1536.00
  L 0.00 0.00
  L 1024.00 0.00
  Z
  M 293.45 839.38
  A 0.32 0.32 0.0 0 0 293.48 839.82
  L 308.29 853.44
  A 0.32 0.32 0.0 0 0 308.75 853.41
  L 441.67 698.58
  A 0.32 0.32 0.0 0 1 442.14 698.57
  L 500.60 760.23
  A 0.32 0.32 0.0 0 0 501.07 760.22
  L 683.13 548.17
  A 0.32 0.32 0.0 0 1 683.57 548.13
  L 710.42 570.03
  A 0.32 0.32 0.0 0 0 710.94 569.83
  L 724.45 484.15
  A 0.32 0.32 0.0 0 0 724.02 483.81
  L 642.78 514.66
  A 0.32 0.32 0.0 0 0 642.69 515.21
  L 666.51 534.63
  A 0.32 0.32 0.0 0 1 666.55 535.09
  L 499.94 729.15
  A 0.32 0.32 0.0 0 1 499.47 729.16
  L 441.25 667.76
  A 0.32 0.32 0.0 0 0 440.78 667.77
  L 293.45 839.38
  Z
  M 597.83 541.16
  L 597.83 520.08
  A 0.41 0.41 0.0 0 0 597.42 519.67
  Q 473.24 519.72 464.28 519.66
  Q 433.96 519.46 426.76 520.40
  Q 394.95 524.54 370.69 544.86
  C 346.88 564.80 332.66 594.38 333.29 624.98
  C 333.98 658.78 350.17 689.16 377.25 709.64
  A 0.54 0.54 0.0 0 0 377.99 709.55
  L 391.09 693.49
  A 0.63 0.63 0.0 0 0 390.99 692.60
  C 381.13 684.70 370.02 674.90 364.05 662.76
  C 354.63 643.59 351.72 622.53 357.87 602.10
  C 363.75 582.55 375.62 567.44 392.05 555.96
  Q 412.57 541.60 439.51 541.57
  Q 521.87 541.45 597.42 541.57
  A 0.41 0.41 0.0 0 0 597.83 541.16
  Z
  M 602.76 673.83
  Q 610.62 680.23 611.52 680.98
  C 635.02 700.44 646.65 730.54 640.37 760.59
  C 636.04 781.35 622.86 800.04 605.60 812.62
  C 593.47 821.46 578.36 825.56 563.69 826.67
  Q 561.27 826.85 543.79 826.85
  Q 381.70 826.81 375.02 826.79
  A 0.59 0.59 0.0 0 0 374.42 827.38
  L 374.42 848.00
  A 0.75 0.74 -0.0 0 0 375.17 848.74
  Q 386.26 848.69 557.23 848.68
  Q 591.38 848.68 618.00 829.77
  Q 628.77 822.12 638.36 811.56
  C 644.37 804.94 649.40 796.29 653.71 787.92
  Q 656.33 782.81 658.56 775.54
  Q 669.03 741.40 656.46 708.30
  C 648.52 687.41 633.84 670.01 615.80 657.07
  A 0.29 0.28 37.5 0 0 615.41 657.12
  L 602.65 672.76
  A 0.76 0.76 0.0 0 0 602.76 673.83
  Z
  M 816.43 1016.60
  L 809.40 1009.18
  A 0.59 0.59 0.0 0 1 809.41 1008.35
  Q 819.32 998.60 822.04 983.76
  C 827.78 952.48 811.81 919.54 777.93 914.72
  C 757.11 911.75 735.65 917.92 722.63 934.99
  C 710.13 951.37 708.24 974.50 716.33 992.94
  Q 728.42 1020.48 759.78 1024.29
  Q 766.77 1025.14 776.89 1024.05
  Q 786.29 1023.05 793.21 1019.53
  A 0.46 0.45 -35.1 0 1 793.74 1019.62
  L 802.32 1028.67
  A 0.40 0.39 -42.4 0 0 802.87 1028.69
  L 816.42 1016.86
  A 0.18 0.18 0.0 0 0 816.43 1016.60
  Z
  M 265.00 945.43
  L 276.36 929.61
  A 0.61 0.60 -52.5 0 0 276.26 928.81
  C 263.71 917.91 247.43 913.17 230.74 914.32
  C 217.07 915.27 204.14 921.59 197.83 934.02
  C 195.59 938.43 195.09 944.15 195.22 949.24
  C 195.55 961.22 204.52 969.56 215.15 973.59
  C 223.73 976.85 232.31 978.54 242.13 980.86
  C 246.55 981.90 254.44 984.04 256.83 988.55
  C 258.26 991.24 257.38 997.27 255.11 999.16
  Q 249.23 1004.06 240.99 1004.33
  Q 219.66 1005.04 204.55 990.44
  A 0.51 0.51 0.0 0 0 203.77 990.53
  L 192.50 1007.83
  A 0.74 0.73 40.0 0 0 192.58 1008.73
  C 202.04 1018.81 217.04 1024.03 230.46 1024.50
  Q 234.41 1024.64 242.04 1024.60
  C 256.81 1024.53 273.13 1018.32 278.23 1003.25
  C 281.88 992.43 280.05 978.78 271.44 970.77
  Q 263.52 963.40 252.63 960.61
  Q 241.94 957.87 231.71 955.29
  C 227.85 954.32 219.12 951.14 218.46 946.82
  C 217.06 937.67 226.97 934.60 234.29 934.47
  Q 251.10 934.18 264.01 945.54
  A 0.68 0.67 38.4 0 0 265.00 945.43
  Z
  M 696.3672 916.5603
  A 0.45 0.45 0.0 0 0 695.9164 916.1111
  L 674.1364 916.1491
  A 0.45 0.45 0.0 0 0 673.6872 916.5999
  L 673.8728 1022.9197
  A 0.45 0.45 0.0 0 0 674.3236 1023.3689
  L 696.1036 1023.3309
  A 0.45 0.45 0.0 0 0 696.5528 1022.8801
  L 696.3672 916.5603
  Z
  M 565.16 944.54
  L 565.16 924.76
  A 0.53 0.53 0.0 0 0 564.63 924.23
  L 545.30 924.23
  A 0.57 0.56 90.0 0 0 544.74 924.80
  L 544.74 944.70
  A 0.52 0.52 0.0 0 1 544.22 945.22
  L 531.77 945.22
  A 0.46 0.46 0.0 0 0 531.31 945.68
  L 531.31 962.45
  A 0.57 0.56 -0.0 0 0 531.88 963.01
  L 544.16 963.01
  A 0.60 0.60 0.0 0 1 544.76 963.61
  Q 544.79 986.93 544.85 1002.50
  Q 544.87 1008.23 545.67 1010.77
  Q 549.99 1024.48 565.32 1024.74
  Q 576.06 1024.92 584.59 1020.33
  A 0.75 0.75 0.0 0 0 584.95 1019.43
  L 580.46 1005.48
  A 0.67 0.66 70.5 0 0 579.60 1005.06
  Q 576.94 1006.06 573.65 1006.41
  C 565.82 1007.24 565.18 1001.10 565.16 995.25
  Q 565.15 987.66 565.16 963.66
  A 0.64 0.63 -90.0 0 1 565.79 963.02
  L 581.26 963.02
  A 0.35 0.35 0.0 0 0 581.61 962.67
  L 581.61 945.77
  A 0.52 0.52 0.0 0 0 581.09 945.25
  L 565.87 945.25
  A 0.71 0.71 0.0 0 1 565.16 944.54
  Z
  M 290.87 945.67
  L 290.87 1052.06
  A 0.38 0.38 0.0 0 0 291.25 1052.44
  L 311.24 1052.44
  A 0.33 0.33 0.0 0 0 311.57 1052.11
  L 311.57 1015.61
  A 0.34 0.34 0.0 0 1 312.14 1015.35
  Q 322.53 1024.82 336.48 1024.85
  Q 355.52 1024.89 364.94 1009.51
  Q 370.94 999.71 371.48 989.56
  C 372.02 979.36 371.38 969.53 366.22 961.01
  Q 355.45 943.20 335.09 943.51
  Q 321.41 943.71 312.30 953.07
  A 0.43 0.42 -23.0 0 1 311.57 952.78
  L 311.57 945.88
  A 0.66 0.65 90.0 0 0 310.92 945.22
  L 291.32 945.22
  A 0.45 0.45 0.0 0 0 290.87 945.67
  Z
  M 449.34 951.43
  C 437.29 942.14 417.59 940.99 404.13 947.66
  C 387.37 955.97 381.34 971.63 382.68 989.52
  Q 383.90 1005.89 396.52 1016.03
  C 405.24 1023.03 414.86 1025.07 426.02 1024.69
  C 441.46 1024.16 453.71 1017.13 460.67 1002.93
  C 469.76 984.39 465.49 963.88 449.34 951.43
  Z
  M 500.93 954.10
  L 500.93 945.75
  A 0.51 0.51 0.0 0 0 500.42 945.24
  L 480.29 945.24
  A 0.45 0.45 0.0 0 0 479.84 945.69
  L 479.84 1023.08
  A 0.29 0.28 -0.0 0 0 480.13 1023.36
  L 500.47 1023.36
  A 0.41 0.40 90.0 0 0 500.87 1022.95
  Q 500.88 1003.04 500.85 974.28
  C 500.85 971.93 501.46 970.28 503.04 968.70
  C 509.17 962.59 517.72 962.32 525.88 963.42
  A 0.39 0.38 3.9 0 0 526.32 963.04
  L 526.32 943.98
  A 0.17 0.17 0.0 0 0 526.15 943.81
  Q 511.12 943.89 501.57 954.35
  A 0.37 0.37 0.0 0 1 500.93 954.10
  Z
  M 598.15 998.94
  L 590.12 1012.84
  A 0.79 0.78 -56.7 0 0 590.32 1013.85
  Q 604.69 1024.62 622.99 1024.78
  C 633.17 1024.87 641.52 1024.27 649.55 1018.27
  Q 655.49 1013.84 657.53 1006.71
  Q 662.29 990.06 647.80 981.39
  Q 643.14 978.59 638.93 977.56
  Q 624.98 974.14 620.56 973.19
  C 616.21 972.25 610.90 970.18 612.39 964.35
  C 613.19 961.21 618.02 959.76 620.82 959.52
  Q 635.80 958.20 647.91 967.35
  A 0.57 0.56 33.7 0 0 648.75 967.19
  L 656.00 954.63
  A 0.94 0.93 31.8 0 0 655.70 953.38
  Q 636.44 940.39 613.63 945.33
  C 602.54 947.73 592.62 954.47 592.15 966.73
  C 591.77 976.75 596.20 983.23 604.78 987.17
  Q 608.75 988.99 610.61 989.42
  Q 628.20 993.44 629.06 993.66
  C 632.40 994.50 638.29 996.18 638.75 999.97
  C 639.45 1005.90 634.15 1008.71 629.28 1009.05
  Q 611.43 1010.28 598.60 998.87
  A 0.30 0.29 35.9 0 0 598.15 998.94
  Z"
/>
<path fill="#b08634" d="
  M 293.45 839.38
  L 440.78 667.77
  A 0.32 0.32 0.0 0 1 441.25 667.76
  L 499.47 729.16
  A 0.32 0.32 0.0 0 0 499.94 729.15
  L 666.55 535.09
  A 0.32 0.32 0.0 0 0 666.51 534.63
  L 642.69 515.21
  A 0.32 0.32 0.0 0 1 642.78 514.66
  L 724.02 483.81
  A 0.32 0.32 0.0 0 1 724.45 484.15
  L 710.94 569.83
  A 0.32 0.32 0.0 0 1 710.42 570.03
  L 683.57 548.13
  A 0.32 0.32 0.0 0 0 683.13 548.17
  L 501.07 760.22
  A 0.32 0.32 0.0 0 1 500.60 760.23
  L 442.14 698.57
  A 0.32 0.32 0.0 0 0 441.67 698.58
  L 308.75 853.41
  A 0.32 0.32 0.0 0 1 308.29 853.44
  L 293.48 839.82
  A 0.32 0.32 0.0 0 1 293.45 839.38
  Z"
/>
<path fill="#b08634" d="
  M 597.83 541.16
  A 0.41 0.41 0.0 0 1 597.42 541.57
  Q 521.87 541.45 439.51 541.57
  Q 412.57 541.60 392.05 555.96
  C 375.62 567.44 363.75 582.55 357.87 602.10
  C 351.72 622.53 354.63 643.59 364.05 662.76
  C 370.02 674.90 381.13 684.70 390.99 692.60
  A 0.63 0.63 0.0 0 1 391.09 693.49
  L 377.99 709.55
  A 0.54 0.54 0.0 0 1 377.25 709.64
  C 350.17 689.16 333.98 658.78 333.29 624.98
  C 332.66 594.38 346.88 564.80 370.69 544.86
  Q 394.95 524.54 426.76 520.40
  Q 433.96 519.46 464.28 519.66
  Q 473.24 519.72 597.42 519.67
  A 0.41 0.41 0.0 0 1 597.83 520.08
  L 597.83 541.16
  Z"
/>
<path fill="#b08634" d="
  M 602.65 672.76
  L 615.41 657.12
  A 0.29 0.28 37.5 0 1 615.80 657.07
  C 633.84 670.01 648.52 687.41 656.46 708.30
  Q 669.03 741.40 658.56 775.54
  Q 656.33 782.81 653.71 787.92
  C 649.40 796.29 644.37 804.94 638.36 811.56
  Q 628.77 822.12 618.00 829.77
  Q 591.38 848.68 557.23 848.68
  Q 386.26 848.69 375.17 848.74
  A 0.75 0.74 -0.0 0 1 374.42 848.00
  L 374.42 827.38
  A 0.59 0.59 0.0 0 1 375.02 826.79
  Q 381.70 826.81 543.79 826.85
  Q 561.27 826.85 563.69 826.67
  C 578.36 825.56 593.47 821.46 605.60 812.62
  C 622.86 800.04 636.04 781.35 640.37 760.59
  C 646.65 730.54 635.02 700.44 611.52 680.98
  Q 610.62 680.23 602.76 673.83
  A 0.76 0.76 0.0 0 1 602.65 672.76
  Z"
/>
<path fill="#b08634" d="
  M 816.43 1016.60
  A 0.18 0.18 0.0 0 1 816.42 1016.86
  L 802.87 1028.69
  A 0.40 0.39 -42.4 0 1 802.32 1028.67
  L 793.74 1019.62
  A 0.46 0.45 -35.1 0 0 793.21 1019.53
  Q 786.29 1023.05 776.89 1024.05
  Q 766.77 1025.14 759.78 1024.29
  Q 728.42 1020.48 716.33 992.94
  C 708.24 974.50 710.13 951.37 722.63 934.99
  C 735.65 917.92 757.11 911.75 777.93 914.72
  C 811.81 919.54 827.78 952.48 822.04 983.76
  Q 819.32 998.60 809.41 1008.35
  A 0.59 0.59 0.0 0 0 809.40 1009.18
  L 816.43 1016.60
  Z
  M 795.18 990.12
  C 803.84 975.09 802.06 953.18 788.11 941.83
  Q 782.52 937.28 775.92 935.81
  C 756.17 931.42 737.54 942.54 735.06 963.08
  C 732.42 985.01 743.67 1003.01 766.74 1004.35
  Q 771.87 1004.65 776.88 1003.02
  A 0.74 0.74 0.0 0 0 777.21 1001.83
  L 765.73 988.70
  A 0.34 0.33 50.8 0 1 765.77 988.22
  L 781.46 975.60
  A 0.37 0.37 0.0 0 1 781.97 975.65
  L 794.66 990.17
  A 0.32 0.32 0.0 0 0 795.18 990.12
  Z"
/>
<path fill="#b08634" d="
  M 265.00 945.43
  A 0.68 0.67 38.4 0 1 264.01 945.54
  Q 251.10 934.18 234.29 934.47
  C 226.97 934.60 217.06 937.67 218.46 946.82
  C 219.12 951.14 227.85 954.32 231.71 955.29
  Q 241.94 957.87 252.63 960.61
  Q 263.52 963.40 271.44 970.77
  C 280.05 978.78 281.88 992.43 278.23 1003.25
  C 273.13 1018.32 256.81 1024.53 242.04 1024.60
  Q 234.41 1024.64 230.46 1024.50
  C 217.04 1024.03 202.04 1018.81 192.58 1008.73
  A 0.74 0.73 40.0 0 1 192.50 1007.83
  L 203.77 990.53
  A 0.51 0.51 0.0 0 1 204.55 990.44
  Q 219.66 1005.04 240.99 1004.33
  Q 249.23 1004.06 255.11 999.16
  C 257.38 997.27 258.26 991.24 256.83 988.55
  C 254.44 984.04 246.55 981.90 242.13 980.86
  C 232.31 978.54 223.73 976.85 215.15 973.59
  C 204.52 969.56 195.55 961.22 195.22 949.24
  C 195.09 944.15 195.59 938.43 197.83 934.02
  C 204.14 921.59 217.07 915.27 230.74 914.32
  C 247.43 913.17 263.71 917.91 276.26 928.81
  A 0.61 0.60 -52.5 0 1 276.36 929.61
  L 265.00 945.43
  Z"
/>
<rect fill="#b08634" x="-11.34" y="-53.61" transform="translate(685.12,969.74) rotate(-0.1)" width="22.68" height="107.22" rx="0.45"/>
<path fill="#b08634" d="
  M 565.87 945.25
  L 581.09 945.25
  A 0.52 0.52 0.0 0 1 581.61 945.77
  L 581.61 962.67
  A 0.35 0.35 0.0 0 1 581.26 963.02
  L 565.79 963.02
  A 0.64 0.63 -90.0 0 0 565.16 963.66
  Q 565.15 987.66 565.16 995.25
  C 565.18 1001.10 565.82 1007.24 573.65 1006.41
  Q 576.94 1006.06 579.60 1005.06
  A 0.67 0.66 70.5 0 1 580.46 1005.48
  L 584.95 1019.43
  A 0.75 0.75 0.0 0 1 584.59 1020.33
  Q 576.06 1024.92 565.32 1024.74
  Q 549.99 1024.48 545.67 1010.77
  Q 544.87 1008.23 544.85 1002.50
  Q 544.79 986.93 544.76 963.61
  A 0.60 0.60 0.0 0 0 544.16 963.01
  L 531.88 963.01
  A 0.57 0.56 0.0 0 1 531.31 962.45
  L 531.31 945.68
  A 0.46 0.46 0.0 0 1 531.77 945.22
  L 544.22 945.22
  A 0.52 0.52 0.0 0 0 544.74 944.70
  L 544.74 924.80
  A 0.57 0.56 90.0 0 1 545.30 924.23
  L 564.63 924.23
  A 0.53 0.53 0.0 0 1 565.16 924.76
  L 565.16 944.54
  A 0.71 0.71 0.0 0 0 565.87 945.25
  Z"
/>
<path fill="#1b1c24" d="
  M 795.18 990.12
  A 0.32 0.32 0.0 0 1 794.66 990.17
  L 781.97 975.65
  A 0.37 0.37 0.0 0 0 781.46 975.60
  L 765.77 988.22
  A 0.34 0.33 50.8 0 0 765.73 988.70
  L 777.21 1001.83
  A 0.74 0.74 0.0 0 1 776.88 1003.02
  Q 771.87 1004.65 766.74 1004.35
  C 743.67 1003.01 732.42 985.01 735.06 963.08
  C 737.54 942.54 756.17 931.42 775.92 935.81
  Q 782.52 937.28 788.11 941.83
  C 802.06 953.18 803.84 975.09 795.18 990.12
  Z"
/>
<path fill="#b08634" d="
  M 290.87 945.67
  A 0.45 0.45 0.0 0 1 291.32 945.22
  L 310.92 945.22
  A 0.66 0.65 90.0 0 1 311.57 945.88
  L 311.57 952.78
  A 0.43 0.42 -23.0 0 0 312.30 953.07
  Q 321.41 943.71 335.09 943.51
  Q 355.45 943.20 366.22 961.01
  C 371.38 969.53 372.02 979.36 371.48 989.56
  Q 370.94 999.71 364.94 1009.51
  Q 355.52 1024.89 336.48 1024.85
  Q 322.53 1024.82 312.14 1015.35
  A 0.34 0.34 0.0 0 0 311.57 1015.61
  L 311.57 1052.11
  A 0.33 0.33 0.0 0 1 311.24 1052.44
  L 291.25 1052.44
  A 0.38 0.38 0.0 0 1 290.87 1052.06
  L 290.87 945.67
  Z
  M 311.55 984.31
  C 311.65 990.34 311.24 994.68 312.18 996.97
  C 314.83 1003.46 324.74 1006.81 331.16 1006.54
  C 343.70 1006.00 350.33 996.32 350.12 983.66
  C 349.91 971.01 342.96 961.55 330.40 961.44
  C 323.98 961.38 314.19 965.06 311.75 971.63
  C 310.90 973.95 311.45 978.27 311.55 984.31
  Z"
/>
<path fill="#b08634" d="
  M 449.34 951.43
  C 465.49 963.88 469.76 984.39 460.67 1002.93
  C 453.71 1017.13 441.46 1024.16 426.02 1024.69
  C 414.86 1025.07 405.24 1023.03 396.52 1016.03
  Q 383.90 1005.89 382.68 989.52
  C 381.34 971.63 387.37 955.97 404.13 947.66
  C 417.59 940.99 437.29 942.14 449.34 951.43
  Z
  M 403.27 982.48
  C 402.53 995.07 408.88 1005.43 422.38 1006.22
  C 435.88 1007.00 443.38 997.45 444.12 984.86
  C 444.86 972.27 438.51 961.91 425.01 961.12
  C 411.51 960.33 404.01 969.89 403.27 982.48
  Z"
/>
<path fill="#b08634" d="
  M 500.93 954.10
  A 0.37 0.37 0.0 0 0 501.57 954.35
  Q 511.12 943.89 526.15 943.81
  A 0.17 0.17 0.0 0 1 526.32 943.98
  L 526.32 963.04
  A 0.39 0.38 3.9 0 1 525.88 963.42
  C 517.72 962.32 509.17 962.59 503.04 968.70
  C 501.46 970.28 500.85 971.93 500.85 974.28
  Q 500.88 1003.04 500.87 1022.95
  A 0.41 0.40 -90.0 0 1 500.47 1023.36
  L 480.13 1023.36
  A 0.29 0.28 0.0 0 1 479.84 1023.08
  L 479.84 945.69
  A 0.45 0.45 0.0 0 1 480.29 945.24
  L 500.42 945.24
  A 0.51 0.51 0.0 0 1 500.93 945.75
  L 500.93 954.10
  Z"
/>
<path fill="#b08634" d="
  M 598.15 998.94
  A 0.30 0.29 35.9 0 1 598.60 998.87
  Q 611.43 1010.28 629.28 1009.05
  C 634.15 1008.71 639.45 1005.90 638.75 999.97
  C 638.29 996.18 632.40 994.50 629.06 993.66
  Q 628.20 993.44 610.61 989.42
  Q 608.75 988.99 604.78 987.17
  C 596.20 983.23 591.77 976.75 592.15 966.73
  C 592.62 954.47 602.54 947.73 613.63 945.33
  Q 636.44 940.39 655.70 953.38
  A 0.94 0.93 31.8 0 1 656.00 954.63
  L 648.75 967.19
  A 0.57 0.56 33.7 0 1 647.91 967.35
  Q 635.80 958.20 620.82 959.52
  C 618.02 959.76 613.19 961.21 612.39 964.35
  C 610.90 970.18 616.21 972.25 620.56 973.19
  Q 624.98 974.14 638.93 977.56
  Q 643.14 978.59 647.80 981.39
  Q 662.29 990.06 657.53 1006.71
  Q 655.49 1013.84 649.55 1018.27
  C 641.52 1024.27 633.17 1024.87 622.99 1024.78
  Q 604.69 1024.62 590.32 1013.85
  A 0.79 0.78 -56.7 0 1 590.12 1012.84
  L 598.15 998.94
  Z"
/>
<path fill="#1b1c24" d="
  M 425.01 961.12
  C 438.51 961.91 444.86 972.27 444.12 984.86
  C 443.38 997.45 435.88 1007.00 422.38 1006.22
  C 408.88 1005.43 402.53 995.07 403.27 982.48
  C 404.01 969.89 411.51 960.33 425.01 961.12
  Z"
/>
<path fill="#1b1c24" d="
  M 350.12 983.66
  C 350.33 996.32 343.70 1006.00 331.16 1006.54
  C 324.74 1006.81 314.83 1003.46 312.18 996.97
  C 311.24 994.68 311.65 990.34 311.55 984.31
  C 311.45 978.27 310.90 973.95 311.75 971.63
  C 314.19 965.06 323.98 961.38 330.40 961.44
  C 342.96 961.55 349.91 971.01 350.12 983.66
  Z"
/>
</svg>
